# xmcd
# 
# Track frame offsets:
#     150
#     23465
#     50975
#     66335
#     83350
#     118230
#     141452
#     164775
# 
# Disc length: 2419
# 
# Revision: 4
# Processed by: cddbd v1.5.2PL0 Copyright (c) Steve Scherf et al.
# Submitted via: BonkEnc v1.0.15
# 
DISCID=73097108
DTITLE=Cacophony - Go Off! (APCY-2015)
DYEAR=1988
DGENRE=Metal
TTITLE0=X-Ray Eyes
TTITLE1=E.S.P.
TTITLE2=Stranger
TTITLE3=Go Off!
TTITLE4=Black Cat
TTITLE5=Sword Of The Warrior
TTITLE6=Floating World
TTITLE7=Images
EXTD=YEAR: 1988
EXTT0=
EXTT1=
EXTT2=
EXTT3=
EXTT4=
EXTT5=
EXTT6=
EXTT7=
PLAYORDER=
